<?xml version="1.0" encoding="iso-8859-1"?>
<!-- Generator: Adobe Illustrator 19.0.0, SVG Export Plug-In . SVG Version: 6.00 Build 0)  -->
<svg version="1.1" id="Layer_1" xmlns="http://www.w3.org/2000/svg" xmlns:xlink="http://www.w3.org/1999/xlink" x="0px" y="0px"
	 viewBox="0 0 512 512" style="enable-background:new 0 0 512 512;" xml:space="preserve">
<g>
	<g>
		<path d="M486.4,38.4H349.867c-14.132,0.015-25.585,11.468-25.6,25.6v51.2h-307.2C7.645,115.211,0.011,122.845,0,132.267v204.8
			c0.015,14.132,11.468,25.585,25.6,25.6h110.933V396.8h-12.375c-9.069,0.048-17.383,5.06-21.658,13.058l-14.008,25.629
			c-4.435,8.115-4.223,17.976,0.558,25.892c4.389,7.556,12.462,12.21,21.2,12.221h172.033c8.738-0.011,16.811-4.665,21.2-12.221
			c4.784-7.927,4.991-17.801,0.542-25.921l-13.975-25.571c-4.273-8.012-12.595-13.037-21.675-13.088H256v-34.133h68.267V448
			c0.015,14.132,11.468,25.585,25.6,25.6H486.4c14.132-0.015,25.585-11.468,25.6-25.6V64C511.985,49.868,500.532,38.415,486.4,38.4z
			 M17.067,140.8c0.005-4.711,3.822-8.529,8.533-8.533h341.333c4.711,0.005,8.529,3.822,8.533,8.533v170.667l-358.4,0.012V140.8z
			 M268.375,413.867c2.83,0.035,5.405,1.645,6.675,4.175l13.975,25.571c1.55,2.831,1.474,6.274-0.2,9.033
			c-1.336,2.365-3.826,3.845-6.542,3.888H110.25c-2.716-0.043-5.206-1.522-6.542-3.888c-1.671-2.749-1.753-6.178-0.217-9.004
			l14.008-25.629c1.272-2.516,3.839-4.114,6.658-4.146h12.375v8.533c0.011,9.421,7.646,17.056,17.067,17.067h85.333
			c9.421-0.011,17.056-7.646,17.067-17.067v-8.533H268.375z M153.6,422.4v-59.733h85.333V422.4H153.6z M25.6,345.6
			c-4.711-0.005-8.529-3.822-8.533-8.533v-8.533h358.4v8.533c-0.005,4.711-3.822,8.529-8.533,8.533H25.6z M494.933,448
			c-0.005,4.711-3.822,8.529-8.533,8.533H349.867c-4.711-0.005-8.529-3.822-8.533-8.533v-85.333h25.6
			c10.813-0.033,20.435-6.868,24.028-17.067h78.372c4.713,0,8.533-3.82,8.533-8.533s-3.82-8.533-8.533-8.533h-76.8v-17.067h76.8
			c4.713,0,8.533-3.82,8.533-8.533s-3.82-8.533-8.533-8.533h-76.8v-17.067h76.8c4.713,0,8.533-3.82,8.533-8.533
			s-3.82-8.533-8.533-8.533h-76.8V243.2h76.8c4.713,0,8.533-3.821,8.533-8.533c0-4.713-3.82-8.533-8.533-8.533h-76.8v-17.067h76.8
			c4.712,0.001,8.532-3.817,8.533-8.529c0-0.002,0-0.003,0-0.004v-42.667c0.001-4.712-3.817-8.532-8.529-8.533
			c-0.001,0-0.003,0-0.004,0h-76.8v-17.067h76.8c4.712,0.001,8.532-3.817,8.533-8.529c0-0.001,0-0.003,0-0.004V81.067
			c0.001-4.712-3.817-8.532-8.529-8.533c-0.001,0-0.003,0-0.004,0h-102.4c-4.712-0.001-8.532,3.817-8.533,8.529
			c0,0.001,0,0.003,0,0.004V115.2h-17.067V64c0.005-4.711,3.822-8.529,8.533-8.533H486.4c4.711,0.005,8.529,3.822,8.533,8.533V448z
			 M375.467,115.2V89.6H460.8v25.6H375.467z M392.533,166.4H460.8V192h-68.267V166.4z"/>
	</g>
</g>
<g>
	<g>
		<path d="M435.2,371.2c-18.851,0-34.133,15.282-34.133,34.133c0,18.851,15.282,34.133,34.133,34.133s34.133-15.282,34.133-34.133
			C469.313,386.49,454.043,371.22,435.2,371.2z M435.2,422.4c-9.426,0-17.067-7.641-17.067-17.067s7.641-17.067,17.067-17.067
			s17.067,7.641,17.067,17.067C452.256,414.755,444.621,422.389,435.2,422.4z"/>
	</g>
</g>
<g>
	<g>
		<path d="M375.471,396.8c-0.001,0-0.003,0-0.004,0c-4.712-0.001-8.532,3.817-8.533,8.529c0,0.001,0,0.003,0,0.004v8.533
			c0,4.713,3.82,8.533,8.533,8.533s8.533-3.821,8.533-8.533v-8.533C384.001,400.622,380.183,396.801,375.471,396.8z"/>
	</g>
</g>
<g>
	<g>
		<path d="M65.658,151.834c-3.319-3.26-8.638-3.26-11.957,0L36.634,168.9c-3.332,3.333-3.331,8.736,0.002,12.068
			c1.6,1.599,3.769,2.498,6.031,2.498c2.264,0.003,4.435-0.897,6.033-2.5L65.766,163.9C69.068,160.538,69.02,155.136,65.658,151.834
			z"/>
	</g>
</g>
<g>
	<g>
		<path d="M116.891,151.833c-3.323-3.282-8.668-3.282-11.991,0l-51.2,51.2c-3.332,3.331-3.333,8.732-0.003,12.064
			c0.001,0.001,0.002,0.002,0.003,0.003c3.33,3.332,8.732,3.333,12.064,0.003c0.001-0.001,0.002-0.002,0.003-0.003l51.2-51.2
			C120.278,160.547,120.244,155.145,116.891,151.833z"/>
	</g>
</g>
<g>
</g>
<g>
</g>
<g>
</g>
<g>
</g>
<g>
</g>
<g>
</g>
<g>
</g>
<g>
</g>
<g>
</g>
<g>
</g>
<g>
</g>
<g>
</g>
<g>
</g>
<g>
</g>
<g>
</g>
</svg>
