<svg height="512" viewBox="0 0 64 64" width="512" xmlns="http://www.w3.org/2000/svg"><path d="m61.9 56.553-6-12a1 1 0 0 0 -.9-.553h-38v-1a1 1 0 0 1 1-1h22a5.006 5.006 0 0 0 5-5v-6a9 9 0 0 0 2-17.778c0-.075 0-.149 0-.222a7.008 7.008 0 0 0 -7-7 6.84 6.84 0 0 0 -2.229.371 11 11 0 0 0 -19.771 6.629v.055a9 9 0 0 0 1 17.945h4.507a12.99 12.99 0 0 0 5.18 5.3l2.828 1.571a1 1 0 0 0 .97 0l2.828-1.571a12.99 12.99 0 0 0 5.18-5.3h2.507v6a3 3 0 0 1 -3 3h-22a3 3 0 0 0 -3 3v1h-6a1 1 0 0 0 -.895.553l-6 12a1 1 0 0 0 -.105.447v3a2 2 0 0 0 2 2h56a2 2 0 0 0 2-2v-3a1 1 0 0 0 -.1-.447zm-27.552-22-2.348 1.303-2.343-1.3a11.007 11.007 0 0 1 -5.657-9.617v-5.289l8-3.556 8 3.556v5.289a11.007 11.007 0 0 1 -5.657 9.616zm7.063-16.469-9-4a1 1 0 0 0 -.812 0l-9 4a1 1 0 0 0 -.599.916v5.939a12.967 12.967 0 0 0 .657 4.061h-3.657a7 7 0 1 1 .05-14 1 1 0 0 0 1-1.091c-.027-.3-.046-.6-.046-.909a9 9 0 0 1 16.565-4.859 1 1 0 0 0 1.279.358 4.879 4.879 0 0 1 2.152-.499 4.962 4.962 0 0 1 4.915 5.877 1 1 0 0 0 .873 1.166 7 7 0 0 1 -.788 13.957h-3.657a12.967 12.967 0 0 0 .657-4.061v-5.939a1 1 0 0 0 -.594-.914zm-31.793 27.916h44.764l5 10h-54.764zm-5.618 14v-2h56v2z"/><path d="m10 52h2v2h-2z"/><path d="m14 52h2v2h-2z"/><path d="m18 52h28v2h-28z"/><path d="m48 52h2v2h-2z"/><path d="m52 52h2v2h-2z"/><path d="m15 48h2v2h-2z"/><path d="m11 48h2v2h-2z"/><path d="m19 48h2v2h-2z"/><path d="m23 48h2v2h-2z"/><path d="m27 48h2v2h-2z"/><path d="m31 48h2v2h-2z"/><path d="m35 48h2v2h-2z"/><path d="m39 48h2v2h-2z"/><path d="m43 48h2v2h-2z"/><path d="m47 48h2v2h-2z"/><path d="m51 48h2v2h-2z"/><path d="m37 13h2v2h-2z"/><path d="m41 13h2v2h-2z"/></svg>