<svg xmlns="http://www.w3.org/2000/svg" xmlns:xlink="http://www.w3.org/1999/xlink" viewBox="-77 169.3 455.7 455.7" style="enable-background:new -77 169.3 455.7 455.7;" width="25" height="25">
<style type="text/css">
	.st0{fill:url(#SVGID_1_);}
</style>
<linearGradient id="SVGID_1_" gradientUnits="userSpaceOnUse" x1="150.865" y1="625" x2="150.865" y2="169.27">
	<stop  offset="0" style="stop-color:#F9A741"/>
	<stop  offset="0.5" style="stop-color:#C2396F"/>
	<stop  offset="1" style="stop-color:#46469C"/>
</linearGradient>
<path class="st0" d="M150.9,351.8c-25,0-45.3,20.3-45.3,45.3c0,25,20.3,45.3,45.3,45.3c25,0,45.3-20.3,45.3-45.3
	C196.2,372.1,175.9,351.8,150.9,351.8z M150.9,351.8c-25,0-45.3,20.3-45.3,45.3c0,25,20.3,45.3,45.3,45.3c25,0,45.3-20.3,45.3-45.3
	C196.2,372.1,175.9,351.8,150.9,351.8z M226.4,277.9h-151c-24.1,0-43.7,19.6-43.7,43.7v151c0,24.1,19.6,43.7,43.7,43.7h151
	c24.1,0,43.7-19.6,43.7-43.7v-151C270.1,297.5,250.5,277.9,226.4,277.9z M150.9,475.6c-43.3,0-78.5-35.2-78.5-78.5
	c0-43.3,35.2-78.5,78.5-78.5c43.3,0,78.5,35.2,78.5,78.5C229.4,440.4,194.1,475.6,150.9,475.6z M231.9,334.9
	c-10.2,0-18.6-8.3-18.6-18.6s8.3-18.6,18.6-18.6s18.6,8.3,18.6,18.6S242.1,334.9,231.9,334.9z M150.9,351.8
	c-25,0-45.3,20.3-45.3,45.3c0,25,20.3,45.3,45.3,45.3c25,0,45.3-20.3,45.3-45.3C196.2,372.1,175.9,351.8,150.9,351.8z M226.4,277.9
	h-151c-24.1,0-43.7,19.6-43.7,43.7v151c0,24.1,19.6,43.7,43.7,43.7h151c24.1,0,43.7-19.6,43.7-43.7v-151
	C270.1,297.5,250.5,277.9,226.4,277.9z M150.9,475.6c-43.3,0-78.5-35.2-78.5-78.5c0-43.3,35.2-78.5,78.5-78.5
	c43.3,0,78.5,35.2,78.5,78.5C229.4,440.4,194.1,475.6,150.9,475.6z M231.9,334.9c-10.2,0-18.6-8.3-18.6-18.6s8.3-18.6,18.6-18.6
	s18.6,8.3,18.6,18.6S242.1,334.9,231.9,334.9z M150.9,351.8c-25,0-45.3,20.3-45.3,45.3c0,25,20.3,45.3,45.3,45.3
	c25,0,45.3-20.3,45.3-45.3C196.2,372.1,175.9,351.8,150.9,351.8z M-77,169.3V625h455.7V169.3H-77z M303.2,472.6
	c0,42.4-34.5,76.9-76.9,76.9h-151C33,549.5-1.5,515-1.5,472.6v-151c0-42.4,34.5-76.9,76.9-76.9h151c42.4,0,76.9,34.5,76.9,76.9
	L303.2,472.6L303.2,472.6z M226.4,277.9h-151c-24.1,0-43.7,19.6-43.7,43.7v151c0,24.1,19.6,43.7,43.7,43.7h151
	c24.1,0,43.7-19.6,43.7-43.7v-151C270.1,297.5,250.5,277.9,226.4,277.9z M150.9,475.6c-43.3,0-78.5-35.2-78.5-78.5
	c0-43.3,35.2-78.5,78.5-78.5c43.3,0,78.5,35.2,78.5,78.5C229.4,440.4,194.1,475.6,150.9,475.6z M231.9,334.9
	c-10.2,0-18.6-8.3-18.6-18.6s8.3-18.6,18.6-18.6s18.6,8.3,18.6,18.6S242.1,334.9,231.9,334.9z M150.9,351.8
	c-25,0-45.3,20.3-45.3,45.3c0,25,20.3,45.3,45.3,45.3c25,0,45.3-20.3,45.3-45.3C196.2,372.1,175.9,351.8,150.9,351.8z M150.9,351.8
	c-25,0-45.3,20.3-45.3,45.3c0,25,20.3,45.3,45.3,45.3c25,0,45.3-20.3,45.3-45.3C196.2,372.1,175.9,351.8,150.9,351.8z M150.9,351.8
	c-25,0-45.3,20.3-45.3,45.3c0,25,20.3,45.3,45.3,45.3c25,0,45.3-20.3,45.3-45.3C196.2,372.1,175.9,351.8,150.9,351.8z M226.4,277.9
	h-151c-24.1,0-43.7,19.6-43.7,43.7v151c0,24.1,19.6,43.7,43.7,43.7h151c24.1,0,43.7-19.6,43.7-43.7v-151
	C270.1,297.5,250.5,277.9,226.4,277.9z M150.9,475.6c-43.3,0-78.5-35.2-78.5-78.5c0-43.3,35.2-78.5,78.5-78.5
	c43.3,0,78.5,35.2,78.5,78.5C229.4,440.4,194.1,475.6,150.9,475.6z M231.9,334.9c-10.2,0-18.6-8.3-18.6-18.6s8.3-18.6,18.6-18.6
	s18.6,8.3,18.6,18.6S242.1,334.9,231.9,334.9z M150.9,351.8c-25,0-45.3,20.3-45.3,45.3c0,25,20.3,45.3,45.3,45.3
	c25,0,45.3-20.3,45.3-45.3C196.2,372.1,175.9,351.8,150.9,351.8z M150.9,351.8c-25,0-45.3,20.3-45.3,45.3c0,25,20.3,45.3,45.3,45.3
	c25,0,45.3-20.3,45.3-45.3C196.2,372.1,175.9,351.8,150.9,351.8z M150.9,351.8c-25,0-45.3,20.3-45.3,45.3c0,25,20.3,45.3,45.3,45.3
	c25,0,45.3-20.3,45.3-45.3C196.2,372.1,175.9,351.8,150.9,351.8z M226.4,277.9h-151c-24.1,0-43.7,19.6-43.7,43.7v151
	c0,24.1,19.6,43.7,43.7,43.7h151c24.1,0,43.7-19.6,43.7-43.7v-151C270.1,297.5,250.5,277.9,226.4,277.9z M150.9,475.6
	c-43.3,0-78.5-35.2-78.5-78.5c0-43.3,35.2-78.5,78.5-78.5c43.3,0,78.5,35.2,78.5,78.5C229.4,440.4,194.1,475.6,150.9,475.6z
	 M231.9,334.9c-10.2,0-18.6-8.3-18.6-18.6s8.3-18.6,18.6-18.6s18.6,8.3,18.6,18.6S242.1,334.9,231.9,334.9z M150.9,351.8
	c-25,0-45.3,20.3-45.3,45.3c0,25,20.3,45.3,45.3,45.3c25,0,45.3-20.3,45.3-45.3C196.2,372.1,175.9,351.8,150.9,351.8z"/>
</svg>
