<svg version="1.1" id="Layer_1" xmlns="http://www.w3.org/2000/svg" viewBox="0 0 80 20" style="enable-background:new 0 0 80 20;" width="300" height="75">
<style type="text/css">
	.st0{fill:#0D7EE4;}
</style>
	<path d="M1,2.1c0-0.5,0.2-1,0.6-1.4C2,0.3,2.5,0.2,3.1,0.2c0.6,0,1.1,0.2,1.5,0.6c0.4,0.4,0.6,0.8,0.6,1.4c0,0.6-0.2,1-0.6,1.4
		C4.2,3.9,3.7,4.1,3.1,4.1C2.5,4.1,2,3.9,1.6,3.5C1.2,3.1,1,2.7,1,2.1z M4.9,15.6c-0.2,0-0.4,0.1-0.7,0.1c-0.3,0.1-0.6,0.1-0.9,0.1
		c-0.3,0-0.6,0-0.9-0.1c-0.3,0-0.5-0.1-0.6-0.3c-0.2-0.1-0.3-0.3-0.4-0.5c-0.1-0.2-0.1-0.5-0.1-0.9V5.2c0.2,0,0.4-0.1,0.7-0.1
		S2.5,5,2.9,5c0.3,0,0.6,0,0.9,0.1c0.3,0,0.5,0.1,0.6,0.3c0.2,0.1,0.3,0.3,0.4,0.5c0.1,0.2,0.1,0.5,0.1,0.9V15.6z"/>
	<path class="st0" d="M14.2,5.1c-1.1,0-2,0.3-2.6,1c-0.6,0.7-0.9,1.6-0.9,2.9c0,1.3,0.3,2.2,1,2.9c0.7,0.7,1.5,1,2.7,1
		c0.6,0,1.1-0.1,1.5-0.2s0.8-0.3,1.2-0.5c0.2,0.2,0.4,0.4,0.6,0.7c0.1,0.3,0.2,0.6,0.2,1c0,0.6-0.3,1.1-1,1.5
		c-0.7,0.4-1.7,0.6-3,0.6c-1,0-1.9-0.1-2.7-0.4s-1.6-0.7-2.2-1.3c-0.6-0.6-1.1-1.3-1.5-2.2C7.1,11.2,6.9,10.2,6.9,9
		c0-1.1,0.2-2.1,0.5-3s0.8-1.6,1.5-2.2c0.6-0.6,1.3-1,2.2-1.3C11.8,2.2,12.7,2,13.7,2C15,2,16,2.2,16.8,2.7c0.7,0.4,1.1,1,1.1,1.7
		c0,0.4-0.1,0.7-0.3,1c-0.2,0.3-0.4,0.5-0.7,0.7c-0.4-0.2-0.8-0.5-1.2-0.6C15.3,5.2,14.8,5.1,14.2,5.1z"/>
	<path class="st0" d="M30.3,10.3c0,0.9-0.1,1.7-0.4,2.4c-0.3,0.7-0.7,1.3-1.2,1.8c-0.5,0.5-1.1,0.8-1.8,1.1
		c-0.7,0.2-1.5,0.4-2.3,0.4s-1.6-0.1-2.3-0.4c-0.7-0.3-1.3-0.6-1.8-1.1c-0.5-0.5-0.9-1.1-1.2-1.8s-0.4-1.5-0.4-2.3
		c0-0.9,0.1-1.6,0.4-2.3c0.3-0.7,0.7-1.3,1.2-1.8c0.5-0.5,1.1-0.9,1.8-1.1c0.7-0.3,1.5-0.4,2.3-0.4s1.6,0.1,2.3,0.4
		c0.7,0.3,1.3,0.6,1.8,1.1c0.5,0.5,0.9,1.1,1.2,1.8S30.3,9.5,30.3,10.3z M22.7,10.3c0,0.9,0.2,1.6,0.5,2S24,13,24.6,13
		c0.6,0,1.1-0.2,1.4-0.7c0.3-0.5,0.5-1.2,0.5-2s-0.2-1.5-0.5-2c-0.3-0.5-0.8-0.7-1.4-0.7c-0.6,0-1.1,0.2-1.4,0.7S22.7,9.4,22.7,10.3
		z"/>
	<path class="st0" d="M37.1,4.7c0.6,0,1.2,0.1,1.7,0.2s1.1,0.4,1.5,0.7c0.4-0.3,0.9-0.5,1.5-0.7c0.5-0.2,1.2-0.3,2-0.3
		c0.5,0,1.1,0.1,1.6,0.2s1,0.4,1.4,0.7c0.4,0.3,0.7,0.7,1,1.2c0.2,0.5,0.4,1.1,0.4,1.9v6.8c-0.1,0-0.4,0.1-0.7,0.1
		c-0.3,0-0.6,0.1-1,0.1c-0.3,0-0.6,0-0.9-0.1c-0.3,0-0.5-0.1-0.6-0.3c-0.2-0.1-0.3-0.3-0.4-0.5s-0.1-0.5-0.1-0.9V8.8
		c0-0.4-0.1-0.7-0.4-0.9s-0.6-0.3-1-0.3c-0.2,0-0.4,0-0.7,0.1c-0.2,0.1-0.4,0.2-0.5,0.3c0,0.1,0,0.1,0,0.2s0,0.1,0,0.1v7.2
		c-0.2,0-0.4,0.1-0.7,0.1c-0.3,0-0.6,0.1-0.9,0.1s-0.6,0-0.9-0.1c-0.3,0-0.5-0.1-0.6-0.3c-0.2-0.1-0.3-0.3-0.4-0.5
		c-0.1-0.2-0.1-0.5-0.1-0.9V8.8c0-0.4-0.1-0.7-0.4-0.9c-0.3-0.2-0.6-0.3-1-0.3c-0.3,0-0.5,0-0.7,0.1s-0.3,0.2-0.5,0.2v7.6
		c-0.1,0-0.4,0.1-0.7,0.1c-0.3,0-0.6,0.1-1,0.1c-0.3,0-0.6,0-0.9-0.1c-0.3,0-0.5-0.1-0.6-0.3c-0.2-0.1-0.3-0.3-0.4-0.5
		c-0.1-0.2-0.1-0.5-0.1-0.9V7.5c0-0.4,0.1-0.7,0.2-0.9c0.2-0.2,0.4-0.4,0.7-0.7c0.5-0.3,1.1-0.6,1.8-0.8C35.6,4.8,36.3,4.7,37.1,4.7
		z"/>
	<path class="st0" d="M55.3,4.7c0.9,0,1.7,0.1,2.4,0.3c0.7,0.2,1.4,0.6,1.9,1c0.5,0.5,1,1,1.3,1.7c0.3,0.7,0.5,1.5,0.5,2.5
		c0,0.9-0.1,1.7-0.4,2.4s-0.6,1.3-1.1,1.7c-0.5,0.5-1.1,0.8-1.7,1.1s-1.4,0.3-2.2,0.3c-0.6,0-1.2-0.1-1.7-0.3v3.6
		c-0.1,0-0.4,0.1-0.7,0.1c-0.3,0-0.6,0.1-1,0.1c-0.3,0-0.6,0-0.9-0.1c-0.3,0-0.5-0.1-0.6-0.3c-0.2-0.1-0.3-0.3-0.4-0.5
		c-0.1-0.2-0.1-0.5-0.1-0.9V7.3c0-0.4,0.1-0.7,0.2-1s0.4-0.5,0.7-0.7c0.4-0.3,1-0.5,1.7-0.7C53.7,4.8,54.4,4.7,55.3,4.7z M55.3,13
		c1.5,0,2.2-0.9,2.2-2.7c0-0.9-0.2-1.6-0.6-2.1c-0.4-0.4-0.9-0.7-1.6-0.7c-0.3,0-0.5,0-0.7,0.1c-0.2,0.1-0.4,0.1-0.6,0.2v4.8
		c0.2,0.1,0.4,0.2,0.6,0.2C54.9,13,55.1,13,55.3,13z"/>
</svg>
